<svg width="128" height="128" viewBox="0 0 128 128" fill="none" xmlns="http://www.w3.org/2000/svg">
<rect width="128" height="128" rx="15" fill="#0F0F1A"/>
<path d="M87.1902 85C87.1902 85.7667 87.1236 86.4333 86.9902 87H88.9902C89.1236 87.5333 89.1902 88.2 89.1902 89C89.1902 89.7667 89.1236 90.4333 88.9902 91H87.4902C87.6236 91.5333 87.6902 92.2 87.6902 93C87.6902 93.7667 87.6236 94.4333 87.4902 95C87.6236 95.5333 87.6902 96.2 87.6902 97C87.6902 97.7667 87.6236 98.4333 87.4902 99C87.6236 99.5333 87.6902 100.2 87.6902 101C87.6902 101.767 87.6236 102.433 87.4902 103H83.4902C83.3569 102.433 83.2902 101.767 83.2902 101C83.2902 100.2 83.3569 99.5333 83.4902 99C83.3569 98.4333 83.2902 97.7667 83.2902 97C83.2902 96.2 83.3569 95.5333 83.4902 95C83.3569 94.4333 83.2902 93.7667 83.2902 93C83.2902 92.2 83.3569 91.5333 83.4902 91C83.3569 90.4333 83.2902 89.7667 83.2902 89C83.2902 88.2 83.3569 87.5333 83.4902 87C83.3569 86.4333 83.2902 85.7667 83.2902 85C83.2902 84.2 83.3569 83.5333 83.4902 83H86.9902C87.1236 83.5333 87.1902 84.2 87.1902 85ZM99.4902 91C99.6236 91.5333 99.6902 92.2 99.6902 93C99.6902 93.7667 99.6236 94.4333 99.4902 95C99.6236 95.5333 99.6902 96.2 99.6902 97C99.6902 97.7667 99.6236 98.4333 99.4902 99C99.6236 99.5333 99.6902 100.2 99.6902 101C99.6902 101.767 99.6236 102.433 99.4902 103H95.4902C95.3569 102.433 95.2902 101.767 95.2902 101C95.2902 100.2 95.3569 99.5333 95.4902 99C95.3569 98.4333 95.2902 97.7667 95.2902 97C95.2902 96.2 95.3569 95.5333 95.4902 95C95.3569 94.4333 95.2902 93.7667 95.2902 93C95.2902 92.2 95.3569 91.5333 95.4902 91C95.3569 90.4333 95.2902 89.7667 95.2902 89C95.2902 88.2 95.3569 87.5333 95.4902 87H88.9902C88.8569 86.4333 88.7902 85.7667 88.7902 85C88.7902 84.2 88.8569 83.5333 88.9902 83H96.9902C97.1236 83.5333 97.1902 84.2 97.1902 85C97.1902 85.7667 97.1236 86.4333 96.9902 87H99.4902C99.6236 87.5333 99.6902 88.2 99.6902 89C99.6902 89.7667 99.6236 90.4333 99.4902 91Z" fill="#EEEEF2"/>
<rect opacity="0.9" x="98" y="83" width="8" height="20" fill="#E05C28"/>
<path d="M45.3066 30.2725C52.3616 30.2725 58.399 31.7287 63.418 34.6406C68.4368 37.5289 72.2838 41.6842 74.959 47.1055C77.634 52.5031 78.9717 58.966 78.9717 66.4941C78.9717 74.0699 77.6217 80.5928 74.9229 86.0615C72.224 91.5062 68.2944 95.6963 63.1338 98.6318C57.9728 101.544 51.6989 103 44.3125 103H21.8691V95.2998H31V95.1875H43.7441C49.7574 95.1875 54.7407 94.0271 58.6943 91.707C62.6479 89.387 65.5958 86.0848 67.5371 81.7998C69.4784 77.5148 70.4492 72.4127 70.4492 66.4941C70.4492 60.623 69.4899 55.5687 67.5723 51.3311C65.6547 47.0697 62.79 43.803 58.9785 41.5303C55.167 39.2339 50.4201 38.085 44.7383 38.085H30.6758V38.0996H21.8691V30.2725H45.3066Z" fill="#EEEEF2"/>
<path d="M22 44L39.86 61.1158C42.0671 63.231 43.1707 64.2886 43.5525 65.5297C43.8473 66.4877 43.8473 67.5123 43.5525 68.4703C43.1707 69.7114 42.0671 70.769 39.86 72.8842L22 90" stroke="#E05C28" stroke-width="5" stroke-linecap="round"/>
</svg>
